# xmcd
#
# Track frame offsets:
#	150
#	17946
#	41462
#	65500
#	81827
#	98847
#	123623
#	139528
#	159989
#	177809
#	198753
#	219296
#	232435
#	249156
#	263612
#	279146
#
# Disc length: 4021 seconds
#
# Revision: 1
# Processed by: cddbd v1.5.2PL0 Copyright (c) Steve Scherf et al.
# Submitted via: audiograbber 1.80
#
DISCID=d20fb310
DTITLE=Gigi D'agostino - The best of
DYEAR=1900
DGENRE=
TTITLE0=Stars
TTITLE1=Super
TTITLE2=Rock The Discothek
TTITLE3=Emergency 911
TTITLE4=Let Me Stay
TTITLE5=Back To Life
TTITLE6=Another Way
TTITLE7=Voices
TTITLE8=One More Time
TTITLE9=L'amour Toujours
TTITLE10=Cada Vez
TTITLE11=The Riddle
TTITLE12=Tell My Why
TTITLE13=Bla Bla Bla
TTITLE14=La Passion
TTITLE15=Techno Fes
EXTD=
EXTT0=
EXTT1=
EXTT2=
EXTT3=
EXTT4=
EXTT5=
EXTT6=
EXTT7=
EXTT8=
EXTT9=
EXTT10=
EXTT11=
EXTT12=
EXTT13=
EXTT14=
EXTT15=
PLAYORDER=
